<svg id="Layer_1" data-name="Layer 1" xmlns="http://www.w3.org/2000/svg" viewBox="0 0 512 512"><defs><style>.cls-1{fill:#6d4135;}.cls-2{fill:#ffd38d;}.cls-3{opacity:0.1;}</style></defs><title>web-browser-flat</title><path class="cls-1" d="M512,21.33V128H0V21.33A21.4,21.4,0,0,1,21.33,0H490.67A21.4,21.4,0,0,1,512,21.33Z"/><path class="cls-2" d="M512,128V490.67A21.4,21.4,0,0,1,490.67,512H21.33A21.4,21.4,0,0,1,0,490.67V128Z"/><rect class="cls-2" x="42.67" y="42.67" width="42.67" height="42.67" rx="2" ry="2"/><rect class="cls-2" x="106.67" y="42.67" width="42.67" height="42.67" rx="2" ry="2"/><rect class="cls-2" x="170.67" y="42.67" width="42.67" height="42.67" rx="2" ry="2"/><path class="cls-1" d="M213.33,384a21.26,21.26,0,0,1-15.08-6.25l-42.67-42.67a21.33,21.33,0,0,1,0-30.17l42.67-42.67a21.33,21.33,0,1,1,30.17,30.17L200.84,320l27.58,27.58A21.33,21.33,0,0,1,213.33,384Z"/><path class="cls-1" d="M298.67,384a21.33,21.33,0,0,1-15.08-36.42L311.16,320l-27.58-27.58a21.33,21.33,0,0,1,30.17-30.17l42.67,42.67a21.33,21.33,0,0,1,0,30.17l-42.67,42.67A21.26,21.26,0,0,1,298.67,384Z"/><g class="cls-3"><path d="M512,21.33V490.67A21.4,21.4,0,0,1,490.67,512H256V0H490.67A21.4,21.4,0,0,1,512,21.33Z"/></g></svg>